<?xml version="1.0" encoding="UTF-8"?>
<svg version="1.1" xmlns="http://www.w3.org/2000/svg" width="3557" height="3557">
<path d="M0 0 C3.19148219 0.23799393 6.38367053 0.46305083 9.57629395 0.68518066 C24.09935761 1.70243069 38.60177725 2.89373965 53.09875488 4.2310791 C54.04252991 4.31746643 54.98630493 4.40385376 55.9586792 4.49285889 C155.51609038 13.65885772 254.54237455 32.01195212 409.78015137 75.51940918 C412.0331911 76.21095502 414.28742445 76.89845009 416.54211426 77.58459473 C504.22130706 104.29702834 589.10882617 139.55564226 742.09875488 216.2310791 C743.06087891 216.76233398 744.02300293 217.29358887 745.01428223 217.84094238 C760.48134459 226.38230581 775.72406423 235.26480222 790.89318848 244.32336426 C793.93040153 246.1308877 796.97518315 247.92459726 800.02453613 249.71154785 C811.00018592 256.14456675 821.84096414 262.74435365 832.55383301 269.6060791 C835.24488917 271.32438972 837.94468908 273.02835248 840.64562988 274.7310791 C871.85006112 294.46829407 902.27443702 315.47070842 932.09875488 337.2310791 C932.85479004 337.78231445 933.6108252 338.3335498 934.38977051 338.90148926 C951.32492145 351.26757357 968.03454589 363.9326152 984.47473145 376.9498291 C986.13345403 378.2584545 987.79867792 379.558358 989.46594238 380.8560791 C1001.73307544 390.41522421 1013.71865748 400.31523259 1025.56115723 410.39465332 C1028.93356632 413.2611479 1032.34665231 416.07072261 1035.78625488 418.8560791 C1040.18677063 422.43508033 1044.3970801 426.1790021 1048.58703613 430.00061035 C1051.09334232 432.22627261 1053.66799881 434.32629471 1056.28625488 436.4185791 C1062.35913669 441.32691682 1067.99394526 446.66608509 1073.67297363 452.0201416 C1076.10533651 454.31073098 1078.56308007 456.55448678 1081.09875488 458.7310791 C1086.93811829 463.76327348 1092.49873741 469.10878142 1098.11975098 474.38146973 C1100.00811333 476.14636403 1101.90498006 477.901479 1103.80578613 479.6529541 C1111.42524064 486.6880137 1118.84488939 493.8850989 1126.1138916 501.28308105 C1130.0130246 505.23188755 1134.01786099 508.96315131 1138.22155762 512.58532715 C1140.98050554 515.00411606 1143.57826762 517.56450623 1146.16125488 520.1685791 C1146.63885254 520.64230957 1147.1164502 521.11604004 1147.60852051 521.60412598 C1150.30465714 524.3074619 1152.858743 527.08707528 1155.34484863 529.98498535 C1159.67835277 534.98573137 1164.38707245 539.58972029 1169.09875488 544.2310791 C1174.44880519 549.50127791 1179.7167364 554.76084862 1184.57727051 560.49084473 C1186.1780944 562.32182559 1187.86228252 564.02893443 1189.59875488 565.7310791 C1192.56591289 568.65238698 1195.2993446 571.71099583 1198.01672363 574.8638916 C1200.65921889 577.86830459 1203.37715662 580.79841982 1206.09875488 583.7310791 C1213.01411 591.19636305 1219.65771541 598.87215128 1226.27233887 606.6036377 C1229.50698815 610.38247561 1232.75635355 614.14798518 1236.01867676 617.9029541 C1244.88407961 628.10712766 1253.67718649 638.32225151 1261.9720459 648.99865723 C1265.10638388 653.01649613 1268.34476162 656.92521296 1271.66125488 660.7935791 C1276.61899103 666.58680995 1281.28798228 672.56428551 1285.89123535 678.64123535 C1287.82113546 681.18217944 1289.7740816 683.70529201 1291.72375488 686.2310791 C1293.00941518 687.90300819 1294.29379799 689.57591093 1295.57775879 691.24914551 C1296.68102747 692.6867595 1297.78495446 694.12386835 1298.88928223 695.56066895 C1307.61399549 706.9205838 1316.18343965 718.36816229 1324.51330566 730.02062988 C1326.13616781 732.28324058 1327.76999462 734.53753059 1329.40734863 736.78967285 C1329.96269287 737.55448975 1330.51803711 738.31930664 1331.09020996 739.1072998 C1332.11608481 740.5195451 1333.1430955 741.93096673 1334.17175293 743.34118652 C1344.01939234 756.92781309 1353.31833703 770.92098859 1362.71447754 784.82092285 C1363.96900107 786.67523802 1365.22518258 788.5284326 1366.48303223 790.38049316 C1374.295587 801.88496263 1381.83487414 813.49154613 1388.99822998 825.41119385 C1391.27954552 829.18369595 1393.66100468 832.89238026 1396.03625488 836.6060791 C1420.8086999 875.63421242 1443.28247333 916.18341501 1464.5333252 957.21789551 C1466.15820746 960.34551511 1467.79542196 963.46644774 1469.43469238 966.58654785 C1509.02736887 1042.123142 1541.75190455 1121.49745134 1569.09875488 1202.2310791 C1569.43671082 1203.22585266 1569.77466675 1204.22062622 1570.12286377 1205.24554443 C1607.4994863 1315.35493787 1633.85711518 1428.9569441 1663.30187988 1743.15686035 C1663.30890132 1745.58119729 1663.31598814 1748.00553404 1663.32313538 1750.42987061 C1663.34253636 1758.13444281 1663.3475694 1765.83898493 1663.34875488 1773.5435791 C1663.34919674 1774.85594921 1663.3496386 1776.16831932 1663.35009384 1777.52045822 C1663.35677923 1815.3727988 1663.24338271 1853.1011731 1660.35522461 1890.86224365 C1660.08253927 1894.44407791 1659.82196094 1898.02667291 1659.56262207 1901.60949707 C1651.44549595 2012.62222038 1633.65640947 2122.7987121 1526.6295166 2461.61633301 C1525.56175576 2464.13774721 1524.49783326 2466.66048264 1523.43908691 2469.18566895 C1500.66484176 2523.47160033 1475.16669761 2576.81637424 1446.69104004 2628.34680176 C1444.98106588 2631.44426184 1443.28028191 2634.54668336 1441.57922363 2637.64904785 C1433.37969761 2652.5556994 1424.85514612 2667.24065804 1416.1192627 2681.83850098 C1414.08330578 2685.25701926 1412.06851136 2688.6871776 1410.05969238 2692.1217041 C1402.61513056 2704.82931411 1394.93933426 2717.31551353 1386.79406738 2729.58654785 C1383.89886738 2733.96217507 1381.11913903 2738.40030549 1378.35656738 2742.85998535 C1373.06595534 2751.37940914 1367.48920362 2759.69054235 1361.84875488 2767.9810791 C1360.82999349 2769.48235136 1359.81127655 2770.9836538 1358.79260254 2772.48498535 C1347.16833781 2789.59819629 1335.29423209 2806.51982378 1323.09875488 2823.2310791 C1322.53156738 2824.00838379 1321.96437988 2824.78568848 1321.38000488 2825.58654785 C1313.5748821 2836.26632523 1305.64283503 2846.84025322 1297.56994629 2857.31896973 C1296.20433247 2859.09385978 1294.84379146 2860.87247757 1293.48547363 2862.6529541 C1288.61588822 2869.02752684 1283.65646452 2875.32199367 1278.62976074 2881.57312012 C1275.70645364 2885.21054604 1272.81475714 2888.86944715 1269.95153809 2892.55432129 C1265.26813181 2898.57572289 1260.42915704 2904.42706008 1255.43640137 2910.19445801 C1252.4532144 2913.64154579 1249.5292729 2917.1241912 1246.66125488 2920.6685791 C1242.040221 2926.35728869 1237.23755115 2931.87844106 1232.42297363 2937.4029541 C1230.28460214 2939.85851219 1228.16142488 2942.32552464 1226.05578613 2944.8092041 C1220.38847694 2951.49159548 1214.59151631 2958.01089059 1208.60046387 2964.40539551 C1205.90230127 2967.28544299 1203.23439913 2970.17519773 1200.66125488 2973.1685791 C1195.60288278 2979.02433006 1190.24129407 2984.60948292 1184.94836426 2990.2520752 C1183.18346995 2992.14043755 1181.42835499 2994.03730428 1179.67687988 2995.93811035 C1172.64182029 3003.55756486 1165.44473509 3010.97721361 1158.04675293 3018.24621582 C1154.07756992 3022.16546901 1150.32303009 3026.19081195 1146.68200684 3030.41638184 C1144.59918244 3032.8036808 1142.40484661 3035.05745357 1140.16125488 3037.2935791 C1139.38910645 3038.06830566 1138.61695801 3038.84303223 1137.82141113 3039.64123535 C1135.73288809 3041.62787922 1133.62480218 3043.51008687 1131.43859863 3045.38342285 C1126.2317691 3049.90464474 1121.43750367 3054.82290781 1116.59875488 3059.7310791 C1111.2196907 3065.1873178 1105.85435625 3070.56474165 1100.0333252 3075.55041504 C1096.49445822 3078.62481689 1093.12235401 3081.87847868 1089.72375488 3085.1060791 C1084.32184571 3090.21311529 1078.90149592 3095.28410777 1073.34875488 3100.22717285 C1071.77765667 3101.6264322 1070.21585024 3103.03616363 1068.66125488 3104.45373535 C1064.41964838 3108.31757377 1060.12408155 3112.06155016 1055.66125488 3115.6685791 C1051.85787986 3118.74444498 1048.19792837 3121.91861076 1044.59875488 3125.2310791 C1040.2049694 3129.27062728 1035.68036665 3133.07787529 1031.03625488 3136.8248291 C1027.73521569 3139.52887184 1024.51123815 3142.312341 1021.28625488 3145.1060791 C1016.12827353 3149.56009139 1010.8653713 3153.84029789 1005.48352051 3158.0201416 C1001.02901139 3161.48311546 996.65063658 3165.03042825 992.28625488 3168.6060791 C984.7911322 3174.72753247 977.13834601 3180.62126073 969.42492676 3186.46398926 C966.94045759 3188.35133055 964.46431077 3190.24921812 961.98937988 3192.14904785 C951.5487961 3200.15465035 941.01205661 3207.99460433 930.3092041 3215.64562988 C928.0465934 3217.26849203 925.7923034 3218.90231884 923.54016113 3220.53967285 C922.77534424 3221.09501709 922.01052734 3221.65036133 921.22253418 3222.22253418 C919.81028889 3223.24840903 918.39886725 3224.27541971 916.98864746 3225.30407715 C903.40202089 3235.15171656 889.40884539 3244.45066125 875.50891113 3253.84680176 C873.65459596 3255.10132529 871.80140138 3256.3575068 869.94934082 3257.61535645 C858.44487135 3265.42791121 846.83828785 3272.96719836 834.91864014 3280.1305542 C831.14613803 3282.41186974 827.43745373 3284.7933289 823.72375488 3287.1685791 C784.71553938 3311.92838162 744.16331435 3334.41601491 703.14416504 3355.64953613 C700.00303436 3357.2807887 696.86877732 3358.92469127 693.73547363 3360.57092285 C618.21373984 3400.15770703 538.8358529 3432.93608398 458.09875488 3460.2310791 C456.64402771 3460.72317871 456.64402771 3460.72317871 455.15991211 3461.22521973 C351.98743461 3496.06257194 245.93795847 3521.627472 13.84875488 3550.4810791 C12.30820938 3550.5967775 12.30820938 3550.5967775 10.73654175 3550.71481323 C2.86157573 3551.29788812 -5.01741061 3551.78541133 -12.90124512 3552.2310791 C-13.64539673 3552.27382462 -14.38954834 3552.31657013 -15.15625 3552.36061096 C-46.09297789 3554.12650112 -76.97434505 3554.54919219 -107.95739746 3554.49182129 C-114.15815425 3554.48042789 -120.35873925 3554.48721734 -126.5594902 3554.49869919 C-157.06033506 3554.54658968 -187.4489012 3553.98032088 -217.90124512 3552.2310791 C-218.93287781 3552.17276161 -218.93287781 3552.17276161 -219.98535156 3552.11326599 C-228.21349355 3551.64709408 -236.43314188 3551.09827694 -244.65124512 3550.4810791 C-245.76649567 3550.39871002 -246.88174622 3550.31634094 -248.03079224 3550.23147583 C-365.67224663 3541.46866298 -482.18395603 3520.91438239 -818.90124512 3410.2310791 C-819.92105469 3409.78989746 -820.94086426 3409.34871582 -821.99157715 3408.89416504 C-837.44054622 3402.19439388 -852.76333743 3395.23372753 -868.02069092 3388.10919189 C-869.32243261 3387.50135191 -870.62432239 3386.89382901 -871.92633057 3386.28656006 C-894.88385759 3375.57871122 -917.66977106 3364.65138419 -940.03894043 3352.7520752 C-942.72260943 3351.32600407 -945.40880441 3349.90477521 -948.09555054 3348.48451233 C-963.19442505 3340.49915671 -978.20369948 3332.38872666 -993.0189209 3323.8848877 C-996.04803948 3322.14685201 -999.08202788 3320.41750165 -1002.11608887 3318.68811035 C-1018.218885 3309.48214449 -1034.0993661 3299.94083537 -1049.90124512 3290.2310791 C-1051.40388916 3289.31189697 -1051.40388916 3289.31189697 -1052.93688965 3288.37414551 C-1069.34482325 3278.32425171 -1085.3470777 3267.70099501 -1101.31793213 3256.97590637 C-1105.73128585 3254.01249707 -1110.15699164 3251.06850531 -1114.59118652 3248.13635254 C-1130.99833393 3237.27374149 -1147.00831518 3225.82936188 -1162.90124512 3214.2310791 C-1163.6785498 3213.6638916 -1164.45585449 3213.0967041 -1165.25671387 3212.5123291 C-1175.93480294 3204.70844019 -1186.50739412 3196.77791419 -1196.98474121 3188.70666504 C-1198.77380262 3187.32920171 -1200.56544314 3185.95519025 -1202.35827637 3184.5826416 C-1215.44060255 3174.56080583 -1228.30087281 3164.31531107 -1240.99450684 3153.80578613 C-1243.53683586 3151.70616741 -1246.0936942 3149.62461398 -1248.65124512 3147.5435791 C-1258.35642549 3139.60963074 -1267.85971174 3131.43242627 -1277.36608887 3123.2623291 C-1279.70495356 3121.25334568 -1282.05153318 3119.25400377 -1284.40515137 3117.2623291 C-1291.11227232 3111.57433118 -1297.65249951 3105.74984182 -1304.07092285 3099.73742676 C-1306.99528904 3096.99808416 -1309.93070606 3094.28831095 -1312.96374512 3091.6685791 C-1318.11540601 3087.21397169 -1323.08919378 3082.56489536 -1328.07556152 3077.92736816 C-1329.30287008 3076.78704457 -1330.53173863 3075.64839788 -1331.76208496 3074.51135254 C-1340.57936543 3066.36221945 -1349.19096927 3058.04496246 -1357.61096191 3049.48449707 C-1361.62822223 3045.41897999 -1365.73927252 3041.55880926 -1370.07067871 3037.8302002 C-1372.64434673 3035.58193059 -1375.05051131 3033.21400585 -1377.46374512 3030.7935791 C-1378.33128418 3029.92861816 -1379.19882324 3029.06365723 -1380.09265137 3028.17248535 C-1382.19059596 3026.02211087 -1384.16013974 3023.78836004 -1386.11608887 3021.50842285 C-1390.46178527 3016.49871019 -1395.17901646 3011.88282673 -1399.90124512 3007.2310791 C-1405.25129543 3001.96088029 -1410.51922664 2996.70130958 -1415.37976074 2990.97131348 C-1416.98058464 2989.14033261 -1418.66477276 2987.43322377 -1420.40124512 2985.7310791 C-1423.36840312 2982.80977122 -1426.10183483 2979.75116237 -1428.81921387 2976.5982666 C-1431.46170912 2973.59385361 -1434.17964685 2970.66373838 -1436.90124512 2967.7310791 C-1443.81660023 2960.26579515 -1450.46020564 2952.59000692 -1457.0748291 2944.85852051 C-1460.30947838 2941.07968259 -1463.55884378 2937.31417303 -1466.82116699 2933.5592041 C-1475.68656985 2923.35503054 -1484.47967672 2913.13990669 -1492.77453613 2902.46350098 C-1495.90887411 2898.44566207 -1499.14725186 2894.53694525 -1502.46374512 2890.6685791 C-1507.42148126 2884.87534825 -1512.09047251 2878.89787269 -1516.69372559 2872.82092285 C-1518.62362569 2870.27997876 -1520.57657183 2867.7568662 -1522.52624512 2865.2310791 C-1523.81190541 2863.55915001 -1525.09628823 2861.88624727 -1526.38024902 2860.2130127 C-1527.4835177 2858.77539871 -1528.58744469 2857.33828985 -1529.69177246 2855.90148926 C-1538.41648572 2844.54157441 -1546.98592989 2833.09399592 -1555.3157959 2821.44152832 C-1556.93865804 2819.17891762 -1558.57248485 2816.92462761 -1560.20983887 2814.67248535 C-1560.76518311 2813.90766846 -1561.32052734 2813.14285156 -1561.8927002 2812.3548584 C-1562.91857505 2810.94261311 -1563.94558573 2809.53119147 -1564.97424316 2808.12097168 C-1574.82188258 2794.53434511 -1584.12082726 2780.54116961 -1593.51696777 2766.64123535 C-1594.77149131 2764.78692018 -1596.02767281 2762.9337256 -1597.28552246 2761.08166504 C-1605.09807723 2749.57719557 -1612.63736437 2737.97061207 -1619.80072021 2726.05096436 C-1622.08203576 2722.27846225 -1624.46349491 2718.56977795 -1626.83874512 2714.8560791 C-1643.1163473 2689.21127789 -1658.19374084 2662.80003372 -1672.90124512 2636.2310791 C-1673.67033203 2634.84372559 -1673.67033203 2634.84372559 -1674.45495605 2633.42834473 C-1681.73633432 2620.26785754 -1688.71850238 2606.96354263 -1695.60827637 2593.59436035 C-1697.8931368 2589.1646352 -1700.21399655 2584.75748772 -1702.57141113 2580.36608887 C-1716.53536584 2554.26760972 -1728.8933045 2527.2737939 -1740.90124512 2500.2310791 C-1741.17692322 2499.6105365 -1741.45260132 2498.9899939 -1741.7366333 2498.35064697 C-1763.05414139 2450.3023923 -1782.11013821 2401.33326579 -1799.09454346 2351.59259033 C-1799.88181011 2349.28797249 -1800.6718281 2346.98431302 -1801.46228027 2344.68078613 C-1814.82874629 2305.66097289 -1826.44016252 2266.12346482 -1836.90124512 2226.2310791 C-1837.14767761 2225.29237976 -1837.39411011 2224.35368042 -1837.64801025 2223.38653564 C-1865.71270366 2116.2356323 -1883.46735513 2006.28846856 -1894.10437012 1808.86779785 C-1894.11139064 1806.39848309 -1894.11847747 1803.92916852 -1894.12562561 1801.45985413 C-1894.14337043 1794.28319922 -1894.14987861 1787.10657112 -1894.15093279 1779.9298954 C-1894.15124645 1777.90998446 -1894.15191092 1775.89007381 -1894.15258408 1773.87016296 C-1894.16166038 1735.70664403 -1894.10300228 1697.63009353 -1891.15771484 1659.55700684 C-1890.88536212 1656.02510665 -1890.62472018 1652.49245342 -1890.3651123 1648.95959473 C-1882.05211989 1537.06084711 -1863.96441273 1426.09020054 -1815.58428955 1250.46380615 C-1814.93390789 1248.33784677 -1814.2886464 1246.21042423 -1813.64587402 1244.08215332 C-1792.17504474 1173.00380681 -1764.62623451 1103.77588493 -1733.90124512 1036.2310791 C-1733.39544922 1035.11894043 -1732.88965332 1034.00680176 -1732.36853027 1032.86096191 C-1718.39911174 1002.24837903 -1703.66889946 971.95857248 -1687.90124512 942.2310791 C-1687.33099609 941.15116699 -1686.76074707 940.07125488 -1686.17321777 938.95861816 C-1679.34426643 926.04659146 -1672.29004616 913.30030576 -1664.87438965 900.71569824 C-1661.41844816 894.85034649 -1658.04861916 888.95061037 -1654.77624512 882.9810791 C-1649.41433711 873.23770137 -1643.69219086 863.72429851 -1637.90124512 854.2310791 C-1637.26847656 853.19290039 -1636.63570801 852.15472168 -1635.98376465 851.08508301 C-1633.93935184 847.73549409 -1631.8901045 844.38891786 -1629.83874512 841.0435791 C-1629.21467773 840.02393066 -1628.59061035 839.00428223 -1627.94763184 837.95373535 C-1618.34078467 822.34106082 -1608.20032853 807.06359872 -1598.12072754 791.75402832 C-1596.84284986 789.81209924 -1595.56616878 787.86938223 -1594.29064941 785.92590332 C-1587.69121444 775.87066323 -1581.08816263 765.87817927 -1573.90124512 756.2310791 C-1571.9890935 753.55498835 -1570.10211817 750.86148193 -1568.21374512 748.1685791 C-1557.32259174 732.70994394 -1546.14242602 717.51904643 -1534.64001465 702.50891113 C-1532.434476 699.61959976 -1530.2591083 696.70939798 -1528.08874512 693.7935791 C-1523.59384289 687.7804746 -1518.95040091 681.88931382 -1514.29528809 676.00012207 C-1512.94050999 674.28090629 -1511.59335302 672.5560342 -1510.24890137 670.82873535 C-1500.69880762 658.57342707 -1490.80743354 646.59982904 -1480.7376709 634.76867676 C-1477.87117631 631.39626767 -1475.06160161 627.98318168 -1472.27624512 624.5435791 C-1468.69724389 620.14306336 -1464.95332212 615.93275389 -1461.13171387 611.74279785 C-1458.9060516 609.23649166 -1456.80602951 606.66183517 -1454.71374512 604.0435791 C-1449.8054074 597.97069729 -1444.46623913 592.33588872 -1439.11218262 586.65686035 C-1436.82159324 584.22449747 -1434.57783744 581.76675392 -1432.40124512 579.2310791 C-1427.36905074 573.3917157 -1422.0235428 567.83109658 -1416.75085449 562.21008301 C-1414.98596019 560.32172065 -1413.23084522 558.42485393 -1411.47937012 556.52404785 C-1404.44431052 548.90459334 -1397.24722532 541.48494459 -1389.84924316 534.21594238 C-1385.90043667 530.31680939 -1382.16917291 526.31197299 -1378.54699707 522.10827637 C-1376.12820816 519.34932844 -1373.56781799 516.75156636 -1370.96374512 514.1685791 C-1370.49001465 513.69098145 -1370.01628418 513.21338379 -1369.52819824 512.72131348 C-1366.82486232 510.02517685 -1364.04524894 507.47109098 -1361.14733887 504.98498535 C-1356.14659284 500.65148122 -1351.54260393 495.94276153 -1346.90124512 491.2310791 C-1341.6310463 485.88102879 -1336.3714756 480.61309758 -1330.64147949 475.75256348 C-1328.81049863 474.15173958 -1327.10338979 472.46755146 -1325.40124512 470.7310791 C-1322.47993723 467.76392109 -1319.42132838 465.03048939 -1316.26843262 462.31311035 C-1313.26401963 459.6706151 -1310.3339044 456.95267737 -1307.40124512 454.2310791 C-1299.93596117 447.31572399 -1292.26017294 440.67211858 -1284.52868652 434.05749512 C-1280.74984861 430.82284584 -1276.98433904 427.57348043 -1273.22937012 424.31115723 C-1263.02519656 415.44575437 -1252.8100727 406.6526475 -1242.13366699 398.35778809 C-1238.11582809 395.22345011 -1234.20711126 391.98507236 -1230.33874512 388.6685791 C-1224.54551427 383.71084295 -1218.56803871 379.04185171 -1212.49108887 374.43859863 C-1209.95014477 372.50869853 -1207.42703221 370.55575239 -1204.90124512 368.6060791 C-1203.22931602 367.32041881 -1201.55641329 366.03603599 -1199.88317871 364.7520752 C-1198.44556472 363.64880652 -1197.00845587 362.54487952 -1195.57165527 361.44055176 C-1184.21174042 352.7158385 -1172.76416193 344.14639433 -1161.11169434 335.81652832 C-1158.84908364 334.19366617 -1156.59479363 332.55983937 -1154.34265137 330.92248535 C-1153.19542603 330.08946899 -1153.19542603 330.08946899 -1152.02502441 329.23962402 C-1150.61277912 328.21374917 -1149.20135749 327.18673849 -1147.7911377 326.15808105 C-1134.20451113 316.31044164 -1120.21133563 307.01149696 -1106.31140137 297.61535645 C-1104.4570862 296.36083291 -1102.60389161 295.10465141 -1100.75183105 293.84680176 C-1089.24736159 286.03424699 -1077.64077809 278.49495984 -1065.72113037 271.331604 C-1061.94862826 269.05028846 -1058.23994396 266.66882931 -1054.52624512 264.2935791 C-1028.88144391 248.01597692 -1002.47019974 232.93858337 -975.90124512 218.2310791 C-974.97634277 217.71835449 -974.05144043 217.20562988 -973.09851074 216.67736816 C-959.93802355 209.3959899 -946.63370864 202.41382184 -933.26452637 195.52404785 C-928.83480122 193.23918741 -924.42765373 190.91832767 -920.03625488 188.56091309 C-893.93777573 174.59695838 -866.94395992 162.23901972 -839.90124512 150.2310791 C-839.28070251 149.955401 -838.66015991 149.6797229 -838.02081299 149.39569092 C-789.22139271 127.74491414 -739.4701362 108.33911765 -688.90124512 91.2310791 C-687.38434082 90.7170755 -687.38434082 90.7170755 -685.83679199 90.19268799 C-652.12724327 78.78565434 -618.22702722 68.37300265 -583.88458252 59.0423584 C-581.04356657 58.26978155 -578.20393496 57.49231693 -575.36462402 56.71350098 C-477.49519796 29.93274122 -376.69799085 12.64919032 -237.52398682 0.49536133 C-234.11023833 0.24632534 -230.69739441 -0.01277176 -227.2845459 -0.27380371 C-152.19949672 -5.89651805 -75.08060076 -5.65219221 0 0 Z " fill="#FE3537" transform="translate(1893.9012451171875,2.7689208984375)"/>
<path d="M0 0 C15.83332266 -0.03254939 31.66664792 -0.05159862 47.5 -0.0625 C48.73395004 -0.06335602 49.96790009 -0.06421204 51.23924255 -0.06509399 C103.24407489 -0.09672492 155.24632305 0.17402115 207.25 0.5 C208.20437328 0.50597372 209.15874657 0.51194743 210.14204025 0.51810217 C234.76140289 0.67232987 259.38072201 0.8328089 284 1 C284.20607691 1.61859894 284.41215382 2.23719788 284.62447548 2.87454224 C285.02989854 4.091241 285.02989854 4.091241 285.44351196 5.33251953 C285.71146387 6.13674347 285.97941578 6.94096741 286.25548744 7.76956177 C287.0468025 10.14021267 287.84564584 12.50821227 288.6484375 14.875 C291.90436486 24.52215755 295.0019599 34.18622967 297.82421875 43.96875 C298.97126368 47.93525616 300.19439911 51.87519623 301.4375 55.8125 C303.51760691 62.40950313 305.5119902 69.02944653 307.48583984 75.65893555 C309.78075863 83.3344207 312.17208253 90.97881392 314.5625 98.625 C317.2780986 107.31670761 319.89100644 116.01426057 322.25805664 124.80688477 C323.87221459 130.7254639 325.79374874 136.51906523 327.77026367 142.32519531 C329.70141283 148.02261195 331.43914649 153.75787826 333.10546875 159.53759766 C334.64827721 164.86741128 336.30584983 170.15403041 338 175.4375 C339.97655673 181.61173145 341.80842447 187.80435262 343.5 194.0625 C345.34574103 200.88504355 347.48294604 207.56386854 349.76953125 214.25024414 C351.78197977 220.19406245 353.47526517 226.19195315 355.10546875 232.25 C356.55515148 237.56858124 358.21629391 242.78465384 360 248 C362.01541117 253.89321273 363.82463211 259.79674151 365.4375 265.8125 C367.22920382 272.48088785 369.2827532 279.02349091 371.5 285.5625 C373.79597759 292.33444349 375.97052228 299.11258588 377.9453125 305.98461914 C380.02667158 313.18848979 382.26618879 320.34222562 384.5 327.5 C387.15524747 336.01208127 389.77681854 344.52922289 392.2578125 353.09375 C393.9968195 359.06633957 395.88117318 364.98996899 397.77026367 370.91650391 C399.6335195 376.78303991 401.38970483 382.67485405 403.10546875 388.5859375 C404.66080277 393.91568084 406.31380932 399.21032568 408 404.5 C410.12645455 411.17080666 412.15379791 417.86211666 414.10546875 424.5859375 C415.66080277 429.91568084 417.31380932 435.21032568 419 440.5 C421.12645455 447.17080666 423.15379791 453.86211666 425.10546875 460.5859375 C426.66080277 465.91568084 428.31380932 471.21032568 430 476.5 C432.126663 483.17146057 434.1554948 489.86308349 436.10546875 496.58813477 C437.6539972 501.89887227 439.31235778 507.16950766 441 512.4375 C442.97637878 518.61180262 444.80824909 524.80438595 446.5 531.0625 C448.3530201 537.90522501 450.48505755 544.61283718 452.76953125 551.32275391 C454.70073724 557.02104953 456.43890961 562.75705664 458.10546875 568.53759766 C459.64827721 573.86741128 461.30584983 579.15403041 463 584.4375 C464.97655954 590.61174023 466.8082515 596.80439486 468.5 603.0625 C470.3530201 609.90522501 472.48505755 616.61283718 474.76953125 623.32275391 C476.70073724 629.02104953 478.43890961 634.75705664 480.10546875 640.53759766 C481.64827721 645.86741128 483.30584983 651.15403041 485 656.4375 C486.97655673 662.61173145 488.80842447 668.80435262 490.5 675.0625 C492.34574103 681.88504355 494.48294604 688.56386854 496.76953125 695.25024414 C498.78197977 701.19406245 500.47526517 707.19195315 502.10546875 713.25 C503.55515148 718.56858124 505.21629391 723.78465384 507 729 C509.01541117 734.89321273 510.82463211 740.79674151 512.4375 746.8125 C514.22920382 753.48088785 516.2827532 760.02349091 518.5 766.5625 C520.79597759 773.33444349 522.97052228 780.11258588 524.9453125 786.98461914 C527.02667158 794.18848979 529.26618879 801.34222562 531.5 808.5 C534.15524747 817.01208127 536.77681854 825.52922289 539.2578125 834.09375 C540.9968195 840.06633957 542.88117318 845.98996899 544.77026367 851.91650391 C546.6335195 857.78303991 548.38970483 863.67485405 550.10546875 869.5859375 C551.66080277 874.91568084 553.31380932 880.21032568 555 885.5 C557.12645455 892.17080666 559.15379791 898.86211666 561.10546875 905.5859375 C562.66080277 910.91568084 564.31380932 916.21032568 566 921.5 C568.12645455 928.17080666 570.15379791 934.86211666 572.10546875 941.5859375 C573.66080277 946.91568084 575.31380932 952.21032568 577 957.5 C579.126663 964.17146057 581.1554948 970.86308349 583.10546875 977.58813477 C584.6539972 982.89887227 586.31235778 988.16950766 588 993.4375 C589.97637878 999.61180262 591.80824909 1005.80438595 593.5 1012.0625 C595.3530201 1018.90522501 597.48505755 1025.61283718 599.76953125 1032.32275391 C601.70073724 1038.02104953 603.43890961 1043.75705664 605.10546875 1049.53759766 C606.64827721 1054.86741128 608.30584983 1060.15403041 610 1065.4375 C611.97655673 1071.61173145 613.80842447 1077.80435262 615.5 1084.0625 C617.34574103 1090.88504355 619.48294604 1097.56386854 621.76953125 1104.25024414 C623.78197977 1110.19406245 625.47526517 1116.19195315 627.10546875 1122.25 C628.55515133 1127.56858066 630.21628061 1132.78465801 632 1138 C634.28536579 1144.68208475 636.26572331 1151.39693362 638.09448242 1158.21704102 C639.84419984 1164.65292128 641.92169776 1170.95658055 644.12109375 1177.25195312 C645.17015119 1180.29145904 646 1182.75938678 646 1186 C641.81034109 1185.33185552 638.21881524 1183.94980045 634.3125 1182.3125 C608.11221504 1171.64275946 581.60393834 1166.55835413 553.3125 1166.6875 C552.47961456 1166.68932281 551.64672913 1166.69114563 550.78860474 1166.69302368 C537.97465614 1166.74013774 525.56967867 1167.32920385 513 1170 C512.15308594 1170.17160645 511.30617188 1170.34321289 510.43359375 1170.52001953 C459.74544989 1180.96185182 414.10250212 1209.61163104 383 1251 C381 1250 381 1250 380.24145508 1248.14013672 C379.88410278 1246.92221436 379.88410278 1246.92221436 379.51953125 1245.6796875 C379.10936768 1244.30490234 379.10936768 1244.30490234 378.69091797 1242.90234375 C378.40104004 1241.90332031 378.11116211 1240.90429688 377.8125 1239.875 C377.1863379 1237.76818756 376.56003171 1235.66141793 375.93359375 1233.5546875 C375.61374512 1232.46897461 375.29389648 1231.38326172 374.96435547 1230.26464844 C373.45912492 1225.16896669 371.91970313 1220.08383309 370.375 1215 C370.08222168 1214.03384766 369.78944336 1213.06769531 369.48779297 1212.07226562 C367.88484383 1206.80917405 366.21297519 1201.58230422 364.4375 1196.375 C362.12527741 1189.5672102 360.17276229 1182.67850032 358.23022461 1175.75732422 C356.77855551 1170.61993289 355.22800585 1165.55109402 353.5 1160.5 C351.15724738 1153.65195388 349.18569656 1146.72517252 347.23046875 1139.7578125 C345.77856497 1134.62030683 344.22806322 1129.55126173 342.5 1124.5 C340.15724738 1117.65195388 338.18569656 1110.72517252 336.23046875 1103.7578125 C334.77856497 1098.62030683 333.22806322 1093.55126173 331.5 1088.5 C329.15724738 1081.65195388 327.18569656 1074.72517252 325.23046875 1067.7578125 C323.77856497 1062.62030683 322.22806322 1057.55126173 320.5 1052.5 C318.15724738 1045.65195388 316.18569656 1038.72517252 314.23046875 1031.7578125 C312.77856497 1026.62030683 311.22806322 1021.55126173 309.5 1016.5 C307.15724738 1009.65195388 305.18569656 1002.72517252 303.23046875 995.7578125 C301.77856497 990.62030683 300.22806322 985.55126173 298.5 980.5 C296.15724738 973.65195388 294.18569656 966.72517252 292.23046875 959.7578125 C290.77856497 954.62030683 289.22806322 949.55126173 287.5 944.5 C285.15724738 937.65195388 283.18569656 930.72517252 281.23046875 923.7578125 C279.77856497 918.62030683 278.22806322 913.55126173 276.5 908.5 C274.15724738 901.65195388 272.18569656 894.72517252 270.23046875 887.7578125 C268.77856497 882.62030683 267.22806322 877.55126173 265.5 872.5 C263.15724738 865.65195388 261.18569656 858.72517252 259.23046875 851.7578125 C257.77856497 846.62030683 256.22806322 841.55126173 254.5 836.5 C252.15724738 829.65195388 250.18569656 822.72517252 248.23046875 815.7578125 C246.77856497 810.62030683 245.22806322 805.55126173 243.5 800.5 C241.15724738 793.65195388 239.18569656 786.72517252 237.23046875 779.7578125 C235.77856497 774.62030683 234.22806322 769.55126173 232.5 764.5 C230.54557353 758.77322022 228.82467026 753.01253981 227.1875 747.1875 C223.98732868 735.80888107 220.49756503 724.52628885 216.99804688 713.23681641 C215.71640766 709.08026731 214.45822929 704.91681822 213.20068359 700.75292969 C211.03789607 693.5927832 208.85125874 686.45484648 206.4375 679.375 C203.52047026 670.7784554 201.09534859 662.04415058 198.64697266 653.3046875 C197.77542468 650.20000337 196.8886716 647.09982133 196 644 C195.34 644.33 194.68 644.66 194 645 C191.01147333 635.48843916 188.05807588 625.96629945 185.125 616.4375 C184.61296021 614.77424683 184.61296021 614.77424683 184.09057617 613.07739258 C182.41756954 607.63570185 180.75244834 602.19181581 179.10546875 596.7421875 C175.41355959 584.51327423 175.41355959 584.51327423 171.4375 572.375 C169.12527741 565.5672102 167.17276229 558.67850032 165.23022461 551.75732422 C163.77855551 546.61993289 162.22800585 541.55109402 160.5 536.5 C158.15724738 529.65195388 156.18569656 522.72517252 154.23046875 515.7578125 C152.44130329 509.42691933 150.43116484 503.22069986 148.30078125 496.99609375 C145.55682738 488.76423213 143.33135128 480.35592035 141 472 C140.09995563 474.64446027 139.20501757 477.29049801 138.3125 479.9375 C137.94608398 481.01161133 137.94608398 481.01161133 137.57226562 482.10742188 C135.86886927 487.17448699 134.31690542 492.27761734 132.82421875 497.41015625 C128.85407765 511.04613744 124.57725381 524.58999753 120.36572266 538.15283203 C114.8589453 555.88079798 114.8589453 555.88079798 109.56018066 573.67163086 C108.11308682 578.6391531 106.58688738 583.57564746 105 588.5 C103.09180582 594.47966249 101.24968218 600.47206269 99.5 606.5 C97.51477076 613.33943494 95.39336586 620.12893349 93.23046875 626.9140625 C91.58632967 632.09099272 90.01410922 637.28364952 88.5 642.5 C86.51477076 649.33943494 84.39336586 656.12893349 82.23046875 662.9140625 C80.58632967 668.09099272 79.01410922 673.28364952 77.5 678.5 C75.51477076 685.33943494 73.39336586 692.12893349 71.23046875 698.9140625 C69.36684222 704.78209681 67.60906368 710.67507193 65.89453125 716.58813477 C64.3460028 721.89887227 62.68764222 727.16950766 61 732.4375 C59.02362122 738.61180262 57.19175091 744.80438595 55.5 751.0625 C53.6469799 757.90522501 51.51494245 764.61283718 49.23046875 771.32275391 C47.29926276 777.02104953 45.56109039 782.75705664 43.89453125 788.53759766 C42.35172297 793.86741064 40.69416856 799.1540368 39 804.4375 C37.04312682 810.54955595 35.2314045 816.67836857 33.5625 822.875 C31.51825116 830.44239502 29.09800861 837.84877825 26.58178711 845.27099609 C24.59884384 851.14093751 22.76569191 857.03052887 21.0546875 862.98461914 C18.97332842 870.18848979 16.73381121 877.34222562 14.5 884.5 C11.84475253 893.01208127 9.22318146 901.52922289 6.7421875 910.09375 C5.03226847 915.96643743 3.19352512 921.79601542 1.31762695 927.61767578 C-0.25022066 932.51519624 -1.71837674 937.43799752 -3.15625 942.375 C-7.14000262 956.02053307 -11.41889014 969.57757949 -15.63427734 983.15283203 C-21.1410547 1000.88079798 -21.1410547 1000.88079798 -26.43981934 1018.67163086 C-27.88691318 1023.6391531 -29.41311262 1028.57564746 -31 1033.5 C-32.90819418 1039.47966249 -34.75031782 1045.47206269 -36.5 1051.5 C-38.48522924 1058.33943494 -40.60663414 1065.12893349 -42.76953125 1071.9140625 C-44.41367033 1077.09099272 -45.98589078 1082.28364952 -47.5 1087.5 C-49.48522924 1094.33943494 -51.60663414 1101.12893349 -53.76953125 1107.9140625 C-55.41367033 1113.09099272 -56.98589078 1118.28364952 -58.5 1123.5 C-60.48522924 1130.33943494 -62.60663414 1137.12893349 -64.76953125 1143.9140625 C-66.63315778 1149.78209681 -68.39093632 1155.67507193 -70.10546875 1161.58813477 C-71.6539972 1166.89887227 -73.31235778 1172.16950766 -75 1177.4375 C-76.97637878 1183.61180262 -78.80824909 1189.80438595 -80.5 1196.0625 C-82.3530201 1202.90522501 -84.48505755 1209.61283718 -86.76953125 1216.32275391 C-88.70073724 1222.02104953 -90.43890961 1227.75705664 -92.10546875 1233.53759766 C-93.64827703 1238.86741064 -95.30583144 1244.1540368 -97 1249.4375 C-98.95687318 1255.54955595 -100.7685955 1261.67836857 -102.4375 1267.875 C-104.48174884 1275.44239502 -106.90199139 1282.84877825 -109.41821289 1290.27099609 C-111.40115616 1296.14093751 -113.23430809 1302.03052887 -114.9453125 1307.98461914 C-117.02667158 1315.18848979 -119.26618879 1322.34222562 -121.5 1329.5 C-124.15524747 1338.01208127 -126.77681854 1346.52922289 -129.2578125 1355.09375 C-130.96773153 1360.96643743 -132.80647488 1366.79601542 -134.68237305 1372.61767578 C-136.24482772 1377.49835018 -137.70805469 1382.40409826 -139.140625 1387.32421875 C-142.8507953 1400.03525206 -146.82421113 1412.66685095 -150.75 1425.3125 C-152.28780652 1430.26650971 -153.82395065 1435.2210327 -155.359375 1440.17578125 C-155.71038269 1441.30486404 -156.06139038 1442.43394684 -156.42303467 1443.59724426 C-156.74717346 1444.64321274 -157.07131226 1445.68918121 -157.40527344 1446.7668457 C-157.68997498 1447.68375687 -157.97467651 1448.60066803 -158.26800537 1449.54536438 C-158.90677664 1451.68738926 -159.46623644 1453.83018336 -160 1456 C-182.7499353 1456.17582375 -205.49993697 1456.34160186 -228.25 1456.5 C-229.1027984 1456.50594854 -229.9555968 1456.51189708 -230.83423758 1456.51802588 C-283.41067123 1456.8841297 -335.98476425 1457.09426961 -388.5625 1457.0625 C-389.64793437 1457.06186365 -389.64793437 1457.06186365 -390.75529671 1457.06121445 C-408.83687765 1457.05042838 -426.91844105 1457.03055827 -445 1457 C-444.69105159 1455.57087178 -444.37971301 1454.14226014 -444.06738281 1452.71386719 C-443.89426575 1451.91825378 -443.72114868 1451.12264038 -443.54278564 1450.30291748 C-442.81314358 1447.20721023 -441.80594133 1444.24887337 -440.75 1441.25 C-438.6148409 1435.05675237 -436.76683675 1428.80753916 -435 1422.5 C-432.95959274 1415.22764629 -430.72619338 1408.08425758 -428.28125 1400.9375 C-426.69273018 1396.17194054 -425.35697152 1391.33550257 -424 1386.5 C-421.9592111 1379.22774717 -419.72620076 1372.08427914 -417.28125 1364.9375 C-415.69273018 1360.17194054 -414.35697152 1355.33550257 -413 1350.5 C-411.30098761 1344.44565129 -409.53554775 1338.45006264 -407.5 1332.5 C-405.54557196 1326.77321562 -403.82474986 1321.0125195 -402.1875 1315.1875 C-398.99625641 1303.84581612 -395.52830059 1292.59599527 -392.03662109 1281.34375 C-390.32904634 1275.83575568 -388.63317616 1270.32416689 -386.9375 1264.8125 C-386.60580811 1263.73484375 -386.27411621 1262.6571875 -385.93237305 1261.546875 C-382.59754795 1250.70521538 -379.2963333 1239.85341284 -376 1229 C-372.01889322 1215.89192156 -368.01644601 1202.79077844 -363.98291016 1189.69873047 C-360.62902466 1178.80711296 -357.31183788 1167.90446279 -354 1157 C-350.01889322 1143.89192156 -346.01644601 1130.79077844 -341.98291016 1117.69873047 C-338.62902466 1106.80711296 -335.31183788 1095.90446279 -332 1085 C-328.01889322 1071.89192156 -324.01644601 1058.79077844 -319.98291016 1045.69873047 C-316.62902466 1034.80711296 -313.31183788 1023.90446279 -310 1013 C-306.01889322 999.89192156 -302.01644601 986.79077844 -297.98291016 973.69873047 C-295.78887468 966.57368244 -293.60685655 959.4450999 -291.4375 952.3125 C-291.15406738 951.38115234 -290.87063477 950.44980469 -290.57861328 949.49023438 C-289.10816207 944.65527671 -287.64296578 939.81878231 -286.18359375 934.98046875 C-281.1719412 918.39486268 -281.1719412 918.39486268 -278.4375 910.375 C-276.12527741 903.5672102 -274.17276229 896.67850032 -272.23022461 889.75732422 C-270.43572268 883.40666301 -268.41744377 877.1817587 -266.28125 870.9375 C-264.69273018 866.17194054 -263.35697152 861.33550257 -262 856.5 C-259.9592111 849.22774717 -257.72620076 842.08427914 -255.28125 834.9375 C-253.69273018 830.17194054 -252.35697152 825.33550257 -251 820.5 C-248.9592111 813.22774717 -246.72620076 806.08427914 -244.28125 798.9375 C-242.69273018 794.17194054 -241.35697152 789.33550257 -240 784.5 C-237.9592111 777.22774717 -235.72620076 770.08427914 -233.28125 762.9375 C-231.69273018 758.17194054 -230.35697152 753.33550257 -229 748.5 C-226.9592111 741.22774717 -224.72620076 734.08427914 -222.28125 726.9375 C-220.69273018 722.17194054 -219.35697152 717.33550257 -218 712.5 C-215.9592111 705.22774717 -213.72620076 698.08427914 -211.28125 690.9375 C-209.69273018 686.17194054 -208.35697152 681.33550257 -207 676.5 C-204.9592111 669.22774717 -202.72620076 662.08427914 -200.28125 654.9375 C-198.69273018 650.17194054 -197.35697152 645.33550257 -196 640.5 C-193.9592111 633.22774717 -191.72620076 626.08427914 -189.28125 618.9375 C-187.69273018 614.17194054 -186.35697152 609.33550257 -185 604.5 C-182.9592111 597.22774717 -180.72620076 590.08427914 -178.28125 582.9375 C-176.69273018 578.17194054 -175.35697152 573.33550257 -174 568.5 C-171.9592111 561.22774717 -169.72620076 554.08427914 -167.28125 546.9375 C-165.69273018 542.17194054 -164.35697152 537.33550257 -163 532.5 C-160.9592111 525.22774717 -158.72620076 518.08427914 -156.28125 510.9375 C-154.69273018 506.17194054 -153.35697152 501.33550257 -152 496.5 C-149.9592111 489.22774717 -147.72620076 482.08427914 -145.28125 474.9375 C-143.69273018 470.17194054 -142.35697152 465.33550257 -141 460.5 C-139.30098761 454.44565129 -137.53554775 448.45006264 -135.5 442.5 C-133.54557196 436.77321562 -131.82474986 431.0125195 -130.1875 425.1875 C-126.99625641 413.84581612 -123.52830059 402.59599527 -120.03662109 391.34375 C-118.32904634 385.83575568 -116.63317616 380.32416689 -114.9375 374.8125 C-114.60580811 373.73484375 -114.27411621 372.6571875 -113.93237305 371.546875 C-110.59754795 360.70521538 -107.2963333 349.85341284 -104 339 C-100.01889322 325.89192156 -96.01644601 312.79077844 -91.98291016 299.69873047 C-88.62902466 288.80711296 -85.31183788 277.90446279 -82 267 C-78.01889322 253.89192156 -74.01644601 240.79077844 -69.98291016 227.69873047 C-66.62902466 216.80711296 -63.31183788 205.90446279 -60 195 C-56.01889322 181.89192156 -52.01644601 168.79077844 -47.98291016 155.69873047 C-44.62902466 144.80711296 -41.31183788 133.90446279 -38 123 C-34.01889322 109.89192156 -30.01644601 96.79077844 -25.98291016 83.69873047 C-23.78887468 76.57368244 -21.60685655 69.4450999 -19.4375 62.3125 C-19.01235107 60.91547852 -19.01235107 60.91547852 -18.57861328 59.49023438 C-17.10816207 54.65527671 -15.64296578 49.81878231 -14.18359375 44.98046875 C-11.32617698 35.52304876 -8.44302692 26.08839122 -5.23828125 16.7421875 C-4.08680008 13.26231697 -2.99775021 9.77019135 -1.92260742 6.26611328 C-1.56253098 5.09331818 -1.20245453 3.92052307 -0.83146667 2.71218872 C-0.55708267 1.81716644 -0.28269867 0.92214417 0 0 Z " fill="#FCFAFA" transform="translate(1629,746)"/>
<path d="M0 0 C1.2065625 0.20496094 2.413125 0.40992188 3.65625 0.62109375 C40.3543472 7.52342278 72.27115203 26.56258978 99 52 C99.70511719 52.65226562 100.41023438 53.30453125 101.13671875 53.9765625 C107.4890478 60.03253543 112.73278343 67.0068146 118 74 C118.6290625 74.83402344 119.258125 75.66804688 119.90625 76.52734375 C129.45830884 89.70648153 136.83863677 103.97478788 143 119 C143.39832031 119.96035156 143.79664062 120.92070312 144.20703125 121.91015625 C162.45521988 168.94831578 157.75721879 221.98241412 138.0546875 267.55078125 C129.35459213 287.07186879 117.0846362 304.15854888 102.36474609 319.56787109 C101.05051533 320.94699053 99.75339339 322.34235213 98.45703125 323.73828125 C87.27248705 335.43044471 74.05792411 345.04659396 60 353 C59.36030273 353.37688965 58.72060547 353.7537793 58.06152344 354.14208984 C18.39291293 377.40223546 -34.16268817 385.5630089 -79 374 C-79.74797852 373.81276367 -80.49595703 373.62552734 -81.26660156 373.43261719 C-86.24999467 372.15759085 -91.1335869 370.66452407 -96 369 C-96.70511719 368.75942871 -97.41023438 368.51885742 -98.13671875 368.27099609 C-134.84098976 355.46239164 -168.7193715 331.08569936 -191 299 C-191.73089844 297.95199219 -192.46179687 296.90398438 -193.21484375 295.82421875 C-220.78945777 254.58345156 -233.62348367 202.0654303 -224.1015625 152.8125 C-212.4940533 99.90178887 -182.60505883 54.789078 -136.8984375 25.40625 C-96.00233093 -0.19252443 -47.38715047 -8.94970955 0 0 Z " fill="#FFFCFC" transform="translate(2218,1938)"/>
<path d="M0 0 C3.39195152 2.87011282 6.62688225 5.84132267 9.796875 8.953125 C10.30347656 9.44570801 10.81007813 9.93829102 11.33203125 10.44580078 C16.30516882 15.48158447 19.74788432 20.66701281 24.046875 26.578125 C24.376875 13.048125 24.706875 -0.481875 25.046875 -14.421875 C44.186875 -14.421875 63.326875 -14.421875 83.046875 -14.421875 C83.046875 81.278125 83.046875 176.978125 83.046875 275.578125 C63.906875 275.578125 44.766875 275.578125 25.046875 275.578125 C24.716875 261.718125 24.386875 247.858125 24.046875 233.578125 C21.406875 237.208125 18.766875 240.838125 16.046875 244.578125 C-2.36715657 266.51248614 -26.43891459 280.00632686 -54.953125 283.578125 C-92.65557729 286.40726125 -131.66020628 276.11972404 -160.953125 251.578125 C-162.07399968 250.65858706 -163.1951042 249.73932925 -164.31640625 248.8203125 C-191.49519844 226.35808845 -208.74851346 197.10252089 -217.203125 162.953125 C-217.44832886 161.98705322 -217.44832886 161.98705322 -217.69848633 161.00146484 C-222.34231817 141.09366734 -221.94554967 117.35246795 -216.953125 97.578125 C-216.69789063 96.33160156 -216.44265625 95.08507813 -216.1796875 93.80078125 C-208.07453938 55.35811687 -181.62327787 21.93459407 -149.20605469 0.72973633 C-135.62188962 -7.92843031 -121.48306941 -14.17296126 -105.953125 -18.421875 C-104.76847656 -18.75445313 -103.58382812 -19.08703125 -102.36328125 -19.4296875 C-67.05871014 -28.01532136 -28.93979443 -22.508729 0 0 Z " fill="#FFFEFE" transform="translate(1055.953125,2527.421875)"/>
<path d="M0 0 C4.35730405 3.53579122 8.51178847 7.24855041 12.58984375 11.1015625 C13.62238281 12.05482422 13.62238281 12.05482422 14.67578125 13.02734375 C20.35563739 18.44902461 25.24564868 24.56515789 29.58984375 31.1015625 C29.58984375 31.7615625 29.58984375 32.4215625 29.58984375 33.1015625 C30.24984375 33.1015625 30.90984375 33.1015625 31.58984375 33.1015625 C31.81929687 32.40160156 32.04875 31.70164062 32.28515625 30.98046875 C33.85149427 27.52420791 35.99978764 24.87729892 38.46484375 22.0390625 C38.94880615 21.47687012 39.43276855 20.91467773 39.93139648 20.33544922 C47.93274479 11.15694121 56.15062313 2.52687226 66.58984375 -3.8984375 C67.6365625 -4.55457031 68.68328125 -5.21070312 69.76171875 -5.88671875 C96.10007716 -21.93109939 128.46901858 -26.08977618 158.44140625 -19.29296875 C190.19493444 -11.19430699 215.6781637 9.06014262 233.58984375 36.1015625 C234.0796875 36.82085938 234.56953125 37.54015625 235.07421875 38.28125 C254.97927117 69.20899274 256.06264332 104.88111334 255.89402556 140.35685182 C255.87503963 145.03725996 255.87349132 149.71767635 255.86994934 154.39811707 C255.86069233 163.22667288 255.8361662 172.05511483 255.80590087 180.88362092 C255.77215711 190.94919651 255.75582107 201.01477806 255.74081457 211.08039629 C255.70960957 231.75419568 255.65467876 252.42783934 255.58984375 273.1015625 C236.11984375 273.1015625 216.64984375 273.1015625 196.58984375 273.1015625 C196.5647876 267.99888916 196.53973145 262.89621582 196.51391602 257.63891602 C196.43045498 240.78329677 196.34181556 223.92770771 196.25050449 207.07212925 C196.19526707 196.85221538 196.14180087 186.63229803 196.0925293 176.41235352 C196.04957108 167.50286845 196.00326418 158.59340809 195.9529652 149.68396133 C195.92645777 144.9681289 195.90160751 140.25230107 195.88076973 135.5364399 C195.86108502 131.09352271 195.8369071 126.65065216 195.80935287 122.20777702 C195.80004474 120.58127063 195.79234752 118.95475405 195.78642464 117.32823181 C195.69811307 93.79247384 190.90872371 72.60513136 174.21484375 55.1015625 C159.9834863 41.74353801 144.38563396 36.6025891 125.09375 36.9140625 C120.686865 37.14988243 116.79870059 37.81675357 112.58984375 39.1015625 C111.66945313 39.34648437 110.7490625 39.59140625 109.80078125 39.84375 C92.56713746 44.87579586 79.45066691 57.00446627 70.7421875 72.359375 C64.45556934 84.29193686 60.50220043 96.66840719 60.43162537 110.23898315 C60.42668739 110.93423005 60.42174941 111.62947695 60.4166618 112.34579194 C60.40137086 114.66265459 60.39294913 116.97948972 60.38452148 119.29638672 C60.37493634 120.96227762 60.36492589 122.62816613 60.35452271 124.29405212 C60.32753651 128.80800029 60.30649299 133.32195883 60.28652072 137.83594275 C60.26462232 142.55651069 60.23725251 147.27704684 60.21046448 151.99758911 C60.16058966 160.93282043 60.11563153 169.86806945 60.07244211 178.80333531 C60.02302517 188.9774252 59.96812358 199.15148319 59.91276252 209.32554221 C59.79902247 230.25085398 59.6928901 251.17619515 59.58984375 272.1015625 C40.44984375 272.1015625 21.30984375 272.1015625 1.58984375 272.1015625 C1.58049805 267.07107666 1.57115234 262.04059082 1.56152344 256.85766602 C1.52768747 240.19762944 1.47230038 223.5377153 1.40594101 206.87777805 C1.36624722 196.78139059 1.33380588 186.68507997 1.31884766 176.58862305 C1.30578083 167.78153899 1.27868886 158.97462472 1.23523068 150.16763633 C1.21272833 145.51073591 1.19692627 140.85404403 1.1979599 136.19708443 C1.19871322 131.79994264 1.18049718 127.40325984 1.14867592 123.00623703 C1.14026447 121.40567944 1.13836621 119.80506983 1.14404106 118.2045002 C1.18764058 103.99810876 -0.71517562 89.93671394 -7.22265625 77.1015625 C-7.56594971 76.3993457 -7.90924316 75.69712891 -8.26293945 74.97363281 C-12.13029996 67.29762949 -17.10574095 60.94467912 -23.41015625 55.1015625 C-23.93609375 54.57046875 -24.46203125 54.039375 -25.00390625 53.4921875 C-37.53400107 41.4930289 -54.96734875 36.68080062 -71.94921875 36.89453125 C-88.92549771 37.91004229 -103.4887191 46.52998812 -115.03515625 58.7265625 C-131.45080113 78.47179573 -135.51951756 102.15083542 -135.61547852 127.01611328 C-135.62507479 128.60377751 -135.63508585 130.19143928 -135.64547729 131.77909851 C-135.67234313 136.06141175 -135.69345101 140.34373581 -135.71347928 144.62608576 C-135.73545284 149.11173595 -135.76278553 153.59735351 -135.78953552 158.08297729 C-135.83930953 166.56475052 -135.88430463 175.046542 -135.92755789 183.52835071 C-135.97706155 193.1898472 -136.03193069 202.85131092 -136.08723748 212.51277566 C-136.20082256 232.37567546 -136.30700393 252.23860559 -136.41015625 272.1015625 C-155.55015625 272.1015625 -174.69015625 272.1015625 -194.41015625 272.1015625 C-194.41015625 176.4015625 -194.41015625 80.7015625 -194.41015625 -17.8984375 C-175.27015625 -17.8984375 -156.13015625 -17.8984375 -136.41015625 -17.8984375 C-136.08015625 -7.3384375 -135.75015625 3.2215625 -135.41015625 14.1015625 C-132.11015625 10.1415625 -128.81015625 6.1815625 -125.41015625 2.1015625 C-90.44735213 -31.22236018 -37.4839674 -28.51203394 0 0 Z " fill="#FFFDFD" transform="translate(2142.41015625,2530.8984375)"/>
<path d="M0 0 C1.19882813 0.268125 2.39765625 0.53625 3.6328125 0.8125 C30.15792577 7.3484622 52.69719743 20.86376658 72 40 C72.86238281 40.84949219 73.72476562 41.69898437 74.61328125 42.57421875 C107.31663198 76.63368929 116.4583111 120.85986457 116.14526367 166.39648438 C116 169 116 169 115 171 C40.42 171 -34.16 171 -111 171 C-104.41693162 197.33227354 -94.17100502 219.58024036 -70.17041016 234.10742188 C-51.01568446 245.14857381 -30.04208948 247.95462284 -8.4921875 242.97265625 C13.34330509 236.89095865 31.66198283 222.75009443 43 203 C51.23215452 203.4960841 58.95987888 205.29406574 66.9375 207.3125 C76.43562611 209.67241393 85.92234563 211.93996695 95.54077148 213.75708008 C100.79037091 214.79037091 100.79037091 214.79037091 103 217 C96.56158358 230.60115468 88.87133566 242.57424947 79 254 C78.1440625 254.99128906 77.288125 255.98257813 76.40625 257.00390625 C55.68693215 280.53115778 27.48293044 295.48776913 -3 302 C-3.81227051 302.18022705 -4.62454102 302.3604541 -5.46142578 302.54614258 C-12.87301305 304.0610132 -20.07332984 304.34766494 -27.625 304.3125 C-29.47387817 304.30621582 -29.47387817 304.30621582 -31.36010742 304.29980469 C-40.89750857 304.18219029 -49.74796547 303.24526361 -59 301 C-60.87945313 300.58234375 -60.87945313 300.58234375 -62.796875 300.15625 C-84.07893885 295.03442551 -103.44993882 284.15769556 -120 270 C-120.53641113 269.54334961 -121.07282227 269.08669922 -121.62548828 268.61621094 C-128.88699982 262.36922424 -135.21116774 255.65355344 -141 248 C-141.80050781 246.96488281 -142.60101562 245.92976563 -143.42578125 244.86328125 C-167.8671572 212.55006371 -178.11800298 170.12730257 -172.91381836 130.08154297 C-172.62720894 128.05113397 -172.31957346 126.0254656 -172 124 C-171.80535156 122.75992188 -171.61070313 121.51984375 -171.41015625 120.2421875 C-168.51525346 104.10610214 -162.88357882 89.31491943 -155 75 C-154.66129883 74.37528809 -154.32259766 73.75057617 -153.97363281 73.10693359 C-135.86552764 40.06351091 -105.07477972 14.20172303 -69 3 C-47.13634866 -3.06209293 -22.23773786 -4.97944257 0 0 Z " fill="#FFFEFE" transform="translate(1794,2507)"/>
<path d="M0 0 C1.85044922 -0.01836914 1.85044922 -0.01836914 3.73828125 -0.03710938 C40.14601731 -0.09453483 73.04159789 16.19222971 98.75 41.1875 C99.30977539 41.72463623 99.86955078 42.26177246 100.44628906 42.81518555 C104.56114373 46.82699993 108.19380184 51.0175231 111.625 55.625 C112.13893311 56.31456787 112.65286621 57.00413574 113.18237305 57.71459961 C118.39022316 64.84798697 122.72285876 72.33782069 126.75 80.1875 C127.07339355 80.80979492 127.39678711 81.43208984 127.72998047 82.07324219 C132.71443406 91.77672019 135.9944872 101.652335 138.75 112.1875 C139.04777344 113.26386719 139.34554687 114.34023437 139.65234375 115.44921875 C144.52411964 134.37885541 143.75 153.72306034 143.75 173.1875 C68.84 173.1875 -6.07 173.1875 -83.25 173.1875 C-75.9568101 198.88780498 -75.9568101 198.88780498 -61.25 220.1875 C-60.51265625 221.01636719 -59.7753125 221.84523438 -59.015625 222.69921875 C-45.41936374 237.20634065 -26.16271268 246.72598669 -6.13671875 247.48828125 C-4.40374828 247.50752551 -2.67054169 247.51111337 -0.9375 247.5 C-0.02033203 247.49508545 0.89683594 247.4901709 1.84179688 247.48510742 C9.13621053 247.35980698 15.78826086 246.4530462 22.75 244.1875 C23.80058594 243.85878906 24.85117188 243.53007812 25.93359375 243.19140625 C45.57548116 236.37687388 60.24839187 222.90896373 70.75 205.1875 C79.92379355 205.73660219 88.64679728 207.8397936 97.56274414 209.94335938 C100.17642467 210.5598875 102.79205754 211.16746403 105.40820312 211.7734375 C113.9014247 213.75021142 122.36640486 215.77925602 130.75 218.1875 C121.61024791 248.32153413 92.26124656 275.49893014 65.375 289.9375 C57.42079497 294.09246612 49.23982387 297.31101362 40.75 300.1875 C39.88375 300.49300781 39.0175 300.79851563 38.125 301.11328125 C35.68271265 301.9177509 33.2479856 302.57663889 30.75 303.1875 C29.06583984 303.60515625 29.06583984 303.60515625 27.34765625 304.03125 C8.36545202 308.25834915 -12.38856576 307.75457684 -31.25 303.1875 C-32.47976562 302.92066406 -33.70953125 302.65382813 -34.9765625 302.37890625 C-63.30907349 295.6685747 -90.95420893 277.74449027 -109.25 255.1875 C-109.99765625 254.28902344 -110.7453125 253.39054687 -111.515625 252.46484375 C-123.48997365 237.57221831 -131.8458415 221.1358919 -138.25 203.1875 C-138.67023437 202.01574219 -139.09046875 200.84398438 -139.5234375 199.63671875 C-144.30265709 185.20922501 -145.75341527 170.80158915 -145.64111328 155.6940918 C-145.62498744 153.12299778 -145.64109154 150.55346974 -145.66015625 147.98242188 C-145.70199348 114.50042316 -133.63655647 82.54760236 -113.25 56.1875 C-112.10337891 54.70443359 -112.10337891 54.70443359 -110.93359375 53.19140625 C-88.42916026 24.97280357 -55.17231242 5.29320916 -19.2265625 0.62109375 C-12.83197235 -0.04599205 -6.42276353 0.00331412 0 0 Z " fill="#FFFEFE" transform="translate(2577.25,2504.8125)"/>
<path d="M0 0 C19.14 0 38.28 0 58 0 C58.33 90.75 58.66 181.5 59 275 C68.46576375 263.96501581 68.46576375 263.96501581 77.72265625 252.77734375 C80.74419944 249.09240857 83.83035951 245.46431679 86.91650391 241.83349609 C89.79557843 238.44026525 92.63211492 235.0172328 95.4375 231.5625 C99.39508188 226.69870975 103.46542446 221.94118769 107.55834961 217.19165039 C110.58945289 213.66701081 113.56985316 210.10960118 116.5 206.5 C119.93208013 202.2720752 123.44551171 198.1247211 127 194 C131.31934272 188.98685227 135.55097277 183.91462485 139.72265625 178.77734375 C142.28203999 175.65603699 144.88591204 172.5754772 147.5 169.5 C151.67111672 164.59233431 155.77681844 159.63711767 159.83203125 154.6328125 C160.90517578 153.32957031 160.90517578 153.32957031 162 152 C162.30331741 151.41777176 162.60663483 150.83554352 162.91914368 150.235672 C164.39640487 147.83006118 165.61764454 146.55306492 168 145 C173.73309325 143.98556567 179.40760594 144.18529974 185.2109375 144.31640625 C186.90628004 144.32947182 188.60164911 144.33943147 190.29702759 144.34642029 C194.74633529 144.37307119 199.194028 144.44176547 203.6427002 144.51934814 C208.18735915 144.59112302 212.73228065 144.62296203 217.27734375 144.65820312 C226.18560309 144.73314133 235.09266694 144.85251747 244 145 C243.05521844 146.26803329 242.10927052 147.53519759 241.1628418 148.80200195 C240.63619431 149.50774857 240.10954681 150.21349518 239.56694031 150.94062805 C237.40804649 153.7779827 235.13001574 156.47730383 232.8125 159.1875 C231.85283447 160.31377643 230.89319996 161.44007928 229.93359375 162.56640625 C229.44874512 163.13375488 228.96389648 163.70110352 228.46435547 164.28564453 C226.09468299 167.05987596 223.73366617 169.84140875 221.375 172.625 C220.91577148 173.16672852 220.45654297 173.70845703 219.98339844 174.26660156 C217.14040014 177.62835079 214.33912707 181.02049768 211.5625 184.4375 C207.60491812 189.30129025 203.53457554 194.05881231 199.44165039 198.80834961 C196.41054711 202.33298919 193.43014684 205.89039882 190.5 209.5 C186.5662143 214.34596789 182.51552241 219.08098528 178.44140625 223.80859375 C174.67010644 228.19404925 170.99866731 232.65191663 167.35546875 237.14453125 C165.0733553 239.91107342 162.74775946 242.63281542 160.40307617 245.34619141 C154.71241085 251.91643782 154.71241085 251.91643782 149.1875 258.625 C148.72730469 259.19476562 148.26710938 259.76453125 147.79296875 260.3515625 C146.70744514 262.60816823 147.26241135 263.64243805 148 266 C149.34901706 268.62161921 150.73611763 271.18605087 152.1875 273.75 C152.62747314 274.53439453 153.06744629 275.31878906 153.52075195 276.12695312 C158.34983908 284.69498363 163.32668655 293.17743241 168.296875 301.6640625 C172.03634589 308.05281992 175.74125034 314.46116076 179.4375 320.875 C180.05971436 321.95458984 180.68192871 323.03417969 181.32299805 324.14648438 C182.58511517 326.3368252 183.84707785 328.52725502 185.10888672 330.71777344 C188.23680148 336.14659942 191.36858448 341.57319281 194.5 347 C195.75001879 349.16665583 197.00001878 351.3333225 198.25 353.5 C198.86875 354.5725 199.4875 355.645 200.125 356.75 C202 360 203.875 363.25 205.75 366.5 C206.3689917 367.57290283 206.9879834 368.64580566 207.62573242 369.7512207 C208.8733474 371.91378583 210.12090616 374.07638339 211.3684082 376.23901367 C214.52943449 381.71870371 217.69149309 387.19779358 220.85546875 392.67578125 C223.97415481 398.07565153 227.08858028 403.47796252 230.20117188 408.88134766 C231.99999856 411.9999975 233.80449259 415.11532062 235.609375 418.23046875 C236.71895904 420.15352523 237.82834434 422.07669641 238.9375 424 C239.45207764 424.88469971 239.96665527 425.76939941 240.49682617 426.6809082 C240.96064697 427.4874585 241.42446777 428.29400879 241.90234375 429.125 C242.30960693 429.82882812 242.71687012 430.53265625 243.13647461 431.2578125 C244 433 244 433 244 435 C235.53343293 435.30208383 227.0691371 435.5326007 218.59850311 435.67355824 C214.66431077 435.74123914 210.73381917 435.8328841 206.80175781 435.98071289 C203.00181777 436.12266956 199.20541805 436.19982029 195.4030304 436.23340416 C193.95770983 436.25730916 192.51257014 436.30400614 191.06877136 436.37449074 C186.47990853 436.58946811 182.39853693 436.53444796 178 435 C174.29295522 431.04736293 172.26859549 426.92812538 170 422 C168.84130121 419.97428874 167.66583107 417.95796065 166.46484375 415.95703125 C165.28716522 413.90994449 164.1114422 411.86173171 162.9375 409.8125 C161.9595355 408.11168147 160.98156809 406.41086461 160.00343323 404.71014404 C158.99905965 402.96320818 157.9955222 401.21579442 156.9921875 399.46826172 C153.81315882 393.93379096 150.62608873 388.40396711 147.4375 382.875 C146.81673584 381.79839111 146.19597168 380.72178223 145.55639648 379.61254883 C140.82718647 371.41734758 136.0648282 363.24187084 131.2890625 355.07373047 C128.16447362 349.72526329 125.05449033 344.36872837 121.96484375 339 C121.62756256 338.41412109 121.29028137 337.82824219 120.94277954 337.22460938 C119.31319993 334.3931652 117.68556772 331.5606259 116.06054688 328.7265625 C112.81297727 323.07799675 109.49602996 317.4984819 106 312 C101.00987482 315.7106059 97.36348872 320.06061243 93.48828125 324.90625 C90.87800464 328.15168026 88.20112189 331.3303641 85.5 334.5 C81.42839352 339.28884426 77.37705892 344.08783403 73.53417969 349.06396484 C71 352 71 352 67.97338867 354.36206055 C62.21163774 359.1122378 58.95959365 363.9768911 58.10144901 371.53832531 C57.36126841 380.65293689 57.54203852 389.81281865 57.71246338 398.94708252 C57.78649139 403.73531036 57.76999688 408.52402607 57.76914978 413.31271362 C57.77777007 420.54447733 57.89937079 427.76630762 58 435 C38.86 435 19.72 435 0 435 C0 291.45 0 147.9 0 0 Z " fill="#FFFEFE" transform="translate(1213,2368)"/>
<path d="M0 0 C3.50797775 2.83702417 6.78450187 5.83670151 10 9 C10.7734375 9.76054687 11.546875 10.52109375 12.34375 11.3046875 C30.57542191 30.34804344 37.65493922 56.71619044 37.40454102 82.44970703 C36.68277091 110.93138309 26.55493224 137.59557309 5.79296875 157.6171875 C-6.42353541 168.03965958 -20.27156514 173.97687226 -36 177 C-37.45792969 177.28037109 -37.45792969 177.28037109 -38.9453125 177.56640625 C-61.98144434 180.83624082 -85.48708421 174.07374089 -104.07470703 160.39990234 C-124.41865141 144.91810731 -139.09386996 122.55018592 -143 97 C-145.57664838 66.99451407 -140.07846138 40.71527172 -120.70703125 17.21875 C-90.32408697 -17.5046149 -38.55584257 -28.17978494 0 0 Z " fill="#FF3537" transform="translate(1039,2577)"/>
<path d="M0 0 C0.33 0 0.66 0 1 0 C0.4344978 10.65123812 -0.69040393 21.14562296 -2.15393066 31.70703125 C-2.37665239 33.34253494 -2.59892147 34.97810032 -2.82078314 36.61372089 C-3.4269479 41.07283485 -4.03946083 45.53105632 -4.65308285 49.98914933 C-5.31714948 54.82218507 -5.97521169 59.65603887 -6.6340332 64.48979187 C-7.78031164 72.89391558 -8.93036064 81.29751637 -10.08296204 89.70077515 C-11.77670549 102.04943834 -13.46457458 114.39889928 -15.15116137 126.74854171 C-17.92422141 147.05247668 -20.70187585 167.35578037 -23.48242188 187.65869141 C-26.12009773 206.91847405 -28.75588254 226.17851358 -31.38867188 245.43896484 C-31.6272758 247.18448834 -31.6272758 247.18448834 -31.8707 248.96527493 C-32.67201667 254.82746449 -33.47328929 260.68966006 -34.27453804 266.5518589 C-35.87543752 278.26450105 -37.47659725 289.97710762 -39.07788086 301.68969727 C-39.31515626 303.42525338 -39.31515626 303.42525338 -39.55722511 305.19587123 C-41.94514338 322.6619262 -44.33451331 340.1277822 -46.72485352 357.59350586 C-46.96048931 359.31526281 -46.96048931 359.31526281 -47.20088542 361.07180274 C-47.8341558 365.6990021 -48.4674335 370.32620047 -49.10071522 374.95339829 C-54.40522803 413.71187241 -59.70488555 452.47100299 -64.99558032 491.23136592 C-65.59404054 495.61564124 -66.19257197 499.99990683 -66.791109 504.38417166 C-67.51973837 509.72136198 -68.24833821 515.05855633 -68.97692871 520.39575195 C-69.1185808 521.43340513 -69.26023289 522.47105831 -69.40617746 523.54015553 C-71.06806937 535.71435435 -72.72936883 547.88863374 -74.38978398 560.06303406 C-75.40771537 567.5263627 -76.42625006 574.98960885 -77.44526041 582.45279026 C-78.13973025 587.53929897 -78.8334654 592.62590708 -79.52660087 597.71259779 C-79.94511478 600.78254925 -80.36436384 603.85239997 -80.78383464 606.92222083 C-80.97525209 608.32416841 -81.16636752 609.72615727 -81.35715038 611.12819135 C-81.61590954 613.02946608 -81.87586873 614.93057737 -82.13588715 616.8316803 C-82.27970998 617.88601792 -82.42353282 618.94035555 -82.57171392 620.0266428 C-83.00377032 623.02617528 -83.49041718 626.01274624 -84 629 C-86.17311036 625.74033445 -87.04865948 622.99690191 -88.1875 619.25 C-88.40035645 618.55463135 -88.61321289 617.8592627 -88.83251953 617.14282227 C-89.55964167 614.76326726 -90.27963412 612.38160836 -91 610 C-91.54509719 608.21209448 -92.09068774 606.4243393 -92.63671875 604.63671875 C-95.04583033 596.74189785 -97.44447315 588.84395224 -99.828125 580.94140625 C-103.55153036 568.61232842 -103.55153036 568.61232842 -107.5625 556.375 C-109.87472259 549.5672102 -111.82723771 542.67850032 -113.76977539 535.75732422 C-115.22144449 530.61993289 -116.77199415 525.55109402 -118.5 520.5 C-120.84275262 513.65195388 -122.81430344 506.72517252 -124.76953125 499.7578125 C-126.5594967 493.42408859 -128.56981916 487.21504084 -130.703125 480.98828125 C-132.69386618 475.01761785 -134.34302557 468.93994198 -136.03320312 462.87890625 C-136.27490234 462.01523438 -136.51660156 461.1515625 -136.765625 460.26171875 C-136.97993164 459.48787842 -137.19423828 458.71403809 -137.41503906 457.91674805 C-137.95941135 455.94229372 -137.95941135 455.94229372 -139 454 C-138.58996582 452.23599243 -138.58996582 452.23599243 -137.83007812 450.07666016 C-137.40982361 448.85684952 -137.40982361 448.85684952 -136.9810791 447.61239624 C-136.5109137 446.27672104 -136.5109137 446.27672104 -136.03125 444.9140625 C-133.35197386 437.09294765 -130.79656984 429.25026846 -128.40625 421.3359375 C-128.09810867 420.31675232 -127.78996735 419.29756714 -127.4724884 418.24749756 C-126.82206575 416.09163647 -126.17262282 413.93547959 -125.52407837 411.77905273 C-123.87978445 406.31339368 -122.22648939 400.85046036 -120.5730381 395.38756561 C-120.17612243 394.07613684 -119.77930198 392.76467925 -119.38257408 391.45319366 C-114.47976537 375.24733913 -109.5119293 359.06150087 -104.54206467 342.87611008 C-102.32676517 335.66112872 -100.11262266 328.44579214 -97.8984375 321.23046875 C-97.6529888 320.43067408 -97.40754009 319.6308794 -97.15465355 318.80684853 C-91.7350932 301.1462936 -86.33385053 283.4801587 -80.9375 265.8125 C-80.71181461 265.07363556 -80.48612923 264.33477112 -80.25360489 263.57351685 C-78.20195014 256.85666079 -76.15046409 250.13975322 -74.09925842 243.42276001 C-70.90177562 232.95211708 -67.70323934 222.48179647 -64.50390625 212.01171875 C-64.27691481 211.26886942 -64.04992336 210.52602009 -63.81605339 209.76066017 C-62.66938582 206.00810942 -61.52270044 202.25556411 -60.37600708 198.50302124 C-58.31304945 191.75198207 -56.25024953 185.0008947 -54.18743706 178.24981117 C-53.0416311 174.49987216 -51.89581504 170.74993624 -50.75 167 C-50.29166662 165.50000001 -49.83333328 164.00000001 -49.375 162.5 C-46.62499999 153.49999998 -46.62499999 153.49999998 -45.93748283 151.24994469 C-45.47920607 149.75012926 -45.02092996 148.25031364 -44.5626545 146.75049782 C-43.41596087 142.99767221 -42.26925599 139.24485004 -41.12252808 135.49203491 C-39.0702892 128.77577956 -37.01812341 122.05950193 -34.96639061 115.34309196 C-33.83442133 111.6375648 -32.70238442 107.9320583 -31.5703125 104.2265625 C-31.23327993 103.12338118 -31.23327993 103.12338118 -30.88943863 101.99791336 C-27.73364434 91.66877754 -24.57465516 81.34062297 -21.41351318 71.01312256 C-19.63505916 65.20283551 -17.85744441 59.39229178 -16.08001328 53.58169174 C-14.63574705 48.86051957 -13.19037431 44.13968812 -11.74413872 39.41911888 C-10.84853378 36.49484939 -9.95401932 33.57024713 -9.05978775 30.6455574 C-8.64958988 29.30473634 -8.23895524 27.9640488 -7.82781601 26.62351608 C-5.11481614 17.77667224 -2.51223862 8.90555496 0 0 Z " fill="#ECEBEB" transform="translate(1908,762)"/>
<path d="M0 0 C19.14 0 38.28 0 58 0 C58 95.7 58 191.4 58 290 C38.86 290 19.72 290 0 290 C0 194.3 0 98.6 0 0 Z " fill="#FFFEFE" transform="translate(1507,2513)"/>
<path d="M0 0 C21.30894291 -1.10121077 41.63384806 7.12754082 57.3984375 21.265625 C58.29304688 22.06613281 59.18765625 22.86664062 60.109375 23.69140625 C73.32849672 36.1884751 84.01128681 53.17110949 87.3984375 71.265625 C87.3984375 73.575625 87.3984375 75.885625 87.3984375 78.265625 C31.6284375 78.265625 -24.1415625 78.265625 -81.6015625 78.265625 C-79.46797328 59.06332206 -71.60178559 42.5232099 -58.6015625 28.265625 C-57.92738281 27.49863281 -57.25320312 26.73164063 -56.55859375 25.94140625 C-41.59080489 9.85033117 -21.59578938 1.59274802 0 0 Z " fill="#FF3537" transform="translate(2573.6015625,2555.734375)"/>
<path d="M0 0 C15.95242471 13.95837162 29.65801049 32.56368195 33.40625 53.90234375 C33.40625 55.88234375 33.40625 57.86234375 33.40625 59.90234375 C-22.36375 59.90234375 -78.13375 59.90234375 -135.59375 59.90234375 C-132.60320317 35.97796907 -121.0234312 15.5127848 -102.59375 -0.09765625 C-72.12563318 -23.75368757 -30.32510658 -24.52497325 0 0 Z " fill="#FF3537" transform="translate(1816.59375,2574.09765625)"/>
<path d="M0 0 C1.42042991 0.74663624 2.81771735 1.539068 4.1875 2.375 C4.88617187 2.79910156 5.58484375 3.22320313 6.3046875 3.66015625 C13.08777494 8.25473812 18.55837704 15.2293852 20.1875 23.375 C21.24324349 33.767475 18.54825103 42.38965568 12.01953125 50.5546875 C5.58962709 56.94346221 -2.65470514 60.30357786 -11.625 60.75 C-21.15088896 60.47618473 -27.88703187 56.27868319 -34.67578125 49.8203125 C-40.81703904 42.79210889 -42.19610264 34.53924752 -42.0859375 25.47265625 C-41.36345078 17.28791388 -36.82390618 10.77392329 -30.8125 5.375 C-21.47429751 -1.15322667 -11.15027228 -4.68973057 0 0 Z " fill="#FFFCFC" transform="translate(1547.8125,2411.625)"/>
</svg>
